%
M48
M72
T01C0.0236
T02C0.0240
T03C0.0315
T04C0.0320
T05C0.0394
T06C0.0400
%
T01
X11975Y6225
T02
X8555Y9790
X9600Y11310
X16160Y1685
X18110Y1685
X21380Y2095
X22010Y1715
X22010Y3040
X19670Y6750
X21380Y10170
X21045Y10980
X19725Y11225
X18840Y10965
X18590Y11975
X10930Y12260
X14210Y9030
X14700Y11380
X17295Y10585
X5610Y13780
T03
X8600Y4600
X7600Y4600
X6600Y4600
X5600Y4600
X4600Y4600
X3600Y4600
X2600Y4600
X1600Y4600
X1600Y7600
X2600Y7600
X3600Y7600
X4600Y7600
X5600Y7600
X6600Y7600
X7600Y7600
X8600Y7600
T04
X16350Y3600
X17350Y3600
X16850Y2600
X15850Y2600
X17850Y2600
X18350Y3600
X18850Y2600
X19850Y2600
X20350Y3600
X19350Y3600
X12850Y2600
X13850Y2600
X13350Y3600
X14350Y3600
X14850Y2600
X15350Y3600
T05
X5100Y16600
X6100Y16600
X7100Y16600
X4100Y16600
X3100Y16600
X2100Y16600
T06
X1600Y2600
X2600Y2600
X3600Y2600
X4600Y2600
X5600Y2600
X6600Y2600
X7600Y2600
X8600Y2600
M30
